<?xml version="1.0" encoding="UTF-8"?><svg id="_레이어_2" xmlns="http://www.w3.org/2000/svg" viewBox="0 0 65.11 17.87"><defs><style>.cls-1{fill:#fff;}</style></defs><g id="_레이어_1-2"><g><path class="cls-1" d="M0,1.51V0H1.51V1.51H0ZM0,17.87V2.73H1.51v15.14H0Z"/><path class="cls-1" d="M4.63,17.87V0h1.51V17.87h-1.51Z"/><path class="cls-1" d="M9.26,17.87V0h1.51V17.87h-1.51Z"/><path class="cls-1" d="M21.47,17.87c-1.07,0-2.06-.2-2.98-.59-.92-.39-1.72-.93-2.39-1.6-.68-.68-1.21-1.47-1.6-2.39-.39-.92-.59-1.91-.59-2.98V2.73h1.51v7.57c0,.83,.16,1.61,.48,2.35s.76,1.38,1.3,1.92c.55,.55,1.19,.98,1.92,1.3,.74,.32,1.52,.48,2.35,.48s1.61-.16,2.35-.48c.74-.32,1.38-.76,1.92-1.3,.55-.54,.98-1.19,1.3-1.92s.48-1.52,.48-2.35V2.73h1.51v7.57c0,1.07-.2,2.06-.61,2.98-.4,.92-.95,1.72-1.65,2.39-.7,.68-1.5,1.21-2.41,1.6-.91,.39-1.88,.59-2.91,.59Z"/><path class="cls-1" d="M34.08,4.95c-.52,.47-.79,1.1-.79,1.86s.26,1.41,.79,1.94c.52,.53,1.17,.79,1.94,.79h6.81c.56,0,1.09,.11,1.59,.32s.93,.5,1.3,.88c.37,.37,.67,.81,.88,1.3,.21,.5,.32,1.02,.32,1.59s-.11,1.11-.32,1.62c-.21,.51-.51,.96-.88,1.35-.37,.38-.81,.69-1.3,.92-.49,.23-1.02,.35-1.59,.35h-11.05v-1.51h11.05c.69,0,1.29-.26,1.8-.79,.51-.52,.77-1.17,.77-1.94s-.26-1.39-.77-1.86c-.52-.47-1.12-.71-1.8-.71h-6.81c-.61,0-1.17-.12-1.68-.35-.51-.23-.96-.54-1.35-.92-.38-.38-.68-.83-.89-1.35-.21-.51-.32-1.05-.32-1.62s.11-1.09,.32-1.59c.21-.49,.51-.93,.89-1.3,.38-.37,.83-.67,1.35-.88,.52-.21,1.07-.32,1.68-.32h10.9v1.51h-10.9c-.77,0-1.41,.24-1.94,.71Z"/><path class="cls-1" d="M65.11,10.3c0,1.07-.2,2.06-.61,2.98-.4,.92-.95,1.72-1.65,2.39-.7,.68-1.5,1.21-2.41,1.6-.91,.39-1.88,.59-2.91,.59s-2.06-.2-2.98-.59c-.92-.39-1.72-.93-2.39-1.6-.68-.68-1.21-1.47-1.6-2.39-.39-.92-.59-1.91-.59-2.98V.45h1.51V5.75h4.09v1.51h-4.09v3.03c0,.83,.16,1.61,.48,2.35,.32,.74,.76,1.38,1.3,1.92,.54,.55,1.19,.98,1.92,1.3,.74,.32,1.52,.48,2.35,.48s1.61-.16,2.35-.48c.74-.32,1.38-.76,1.92-1.3,.55-.54,.98-1.19,1.3-1.92,.32-.74,.48-1.52,.48-2.35h1.51Z"/></g></g></svg>