<?xml version="1.0" encoding="UTF-8"?><svg id="_레이어_2" xmlns="http://www.w3.org/2000/svg" viewBox="0 0 121.63 17.41"><defs><style>.cls-1{fill:#fff;}</style></defs><g id="_레이어_1-2"><g><g><path class="cls-1" d="M25.19,2.27c1.05,0,2.04,.2,2.97,.59,.93,.39,1.73,.93,2.41,1.6,.68,.68,1.21,1.48,1.6,2.41,.39,.93,.59,1.92,.59,2.97v7.57h-1.51v-3.03c-.69,.91-1.56,1.64-2.63,2.2-1.07,.56-2.21,.83-3.42,.83-1.07,0-2.06-.2-2.98-.59-.92-.39-1.72-.93-2.39-1.6-.68-.68-1.21-1.47-1.6-2.39-.39-.92-.59-1.91-.59-2.98s.2-2.04,.59-2.97c.39-.93,.93-1.73,1.6-2.41,.68-.68,1.47-1.21,2.39-1.6,.92-.39,1.91-.59,2.98-.59Zm0,13.63c.83,0,1.61-.16,2.35-.48,.74-.32,1.38-.76,1.92-1.3,.55-.54,.98-1.19,1.3-1.92,.32-.74,.48-1.52,.48-2.35s-.16-1.61-.48-2.35c-.32-.74-.76-1.38-1.3-1.92-.55-.55-1.19-.98-1.92-1.3-.74-.32-1.52-.48-2.35-.48s-1.61,.16-2.35,.48c-.74,.32-1.38,.76-1.92,1.3-.55,.54-.98,1.19-1.3,1.92-.32,.74-.48,1.52-.48,2.35s.16,1.61,.48,2.35c.32,.74,.76,1.38,1.3,1.92,.54,.55,1.19,.98,1.92,1.3,.74,.32,1.52,.48,2.35,.48Z"/><path class="cls-1" d="M42.97,2.27c1.03,0,2,.2,2.91,.59,.91,.39,1.71,.93,2.41,1.6,.7,.68,1.25,1.48,1.65,2.41,.4,.93,.61,1.92,.61,2.97h-1.51c0-.83-.16-1.61-.48-2.35-.32-.74-.76-1.38-1.3-1.92-.55-.55-1.19-.98-1.92-1.3-.74-.32-1.52-.48-2.35-.48s-1.61,.16-2.35,.48c-.74,.32-1.38,.76-1.92,1.3-.55,.54-.98,1.19-1.3,1.92-.32,.74-.48,1.52-.48,2.35v7.57h-1.51v-7.57c0-1.05,.2-2.04,.59-2.97,.39-.93,.93-1.73,1.6-2.41,.68-.68,1.47-1.21,2.39-1.6,.92-.39,1.91-.59,2.98-.59Z"/><path class="cls-1" d="M68.31,9.84c0,1.07-.2,2.06-.61,2.98-.4,.92-.95,1.72-1.65,2.39-.7,.68-1.5,1.21-2.41,1.6-.91,.39-1.88,.59-2.91,.59s-2.06-.2-2.98-.59c-.92-.39-1.72-.93-2.39-1.6-.68-.68-1.21-1.47-1.6-2.39-.39-.92-.59-1.91-.59-2.98V0h1.51V5.3h4.09v1.51h-4.09v3.03c0,.83,.16,1.61,.48,2.35,.32,.74,.76,1.38,1.3,1.92,.54,.55,1.19,.98,1.92,1.3,.74,.32,1.52,.48,2.35,.48s1.61-.16,2.35-.48c.74-.32,1.38-.76,1.92-1.3,.55-.54,.98-1.19,1.3-1.92,.32-.74,.48-1.52,.48-2.35h1.51Z"/><path class="cls-1" d="M78.52,2.27c1.03,0,2,.2,2.91,.59,.91,.39,1.71,.93,2.41,1.6,.7,.68,1.25,1.48,1.65,2.41,.4,.93,.61,1.92,.61,2.97s-.2,2.06-.61,2.98c-.4,.92-.95,1.72-1.65,2.39-.7,.68-1.5,1.21-2.41,1.6-.91,.39-1.88,.59-2.91,.59s-2.06-.2-2.98-.59c-.92-.39-1.72-.93-2.39-1.6-.68-.68-1.21-1.47-1.6-2.39-.39-.92-.59-1.91-.59-2.98s.2-2.04,.59-2.97c.39-.93,.93-1.73,1.6-2.41,.68-.68,1.47-1.21,2.39-1.6,.92-.39,1.91-.59,2.98-.59Zm0,13.63c.83,0,1.61-.16,2.35-.48,.74-.32,1.38-.76,1.92-1.3,.55-.54,.98-1.19,1.3-1.92,.32-.74,.48-1.52,.48-2.35s-.16-1.61-.48-2.35c-.32-.74-.76-1.38-1.3-1.92-.55-.55-1.19-.98-1.92-1.3-.74-.32-1.52-.48-2.35-.48s-1.61,.16-2.35,.48c-.74,.32-1.38,.76-1.92,1.3-.55,.54-.98,1.19-1.3,1.92-.32,.74-.48,1.52-.48,2.35s.16,1.61,.48,2.35c.32,.74,.76,1.38,1.3,1.92,.54,.55,1.19,.98,1.92,1.3,.74,.32,1.52,.48,2.35,.48Z"/><path class="cls-1" d="M96.29,2.27c1.03,0,2,.2,2.91,.59,.91,.39,1.71,.93,2.41,1.6,.7,.68,1.25,1.48,1.65,2.41,.4,.93,.61,1.92,.61,2.97s-.2,2.06-.61,2.98c-.4,.92-.95,1.72-1.65,2.39-.7,.68-1.5,1.21-2.41,1.6-.91,.39-1.88,.59-2.91,.59s-2.06-.2-2.98-.59c-.92-.39-1.72-.93-2.39-1.6-.68-.68-1.21-1.47-1.6-2.39-.39-.92-.59-1.91-.59-2.98s.2-2.04,.59-2.97c.39-.93,.93-1.73,1.6-2.41,.68-.68,1.47-1.21,2.39-1.6,.92-.39,1.91-.59,2.98-.59Zm0,13.63c.83,0,1.61-.16,2.35-.48,.74-.32,1.38-.76,1.92-1.3,.55-.54,.98-1.19,1.3-1.92s.48-1.52,.48-2.35-.16-1.61-.48-2.35c-.32-.74-.76-1.38-1.3-1.92-.54-.55-1.19-.98-1.92-1.3-.74-.32-1.52-.48-2.35-.48s-1.61,.16-2.35,.48c-.74,.32-1.38,.76-1.92,1.3-.55,.54-.98,1.19-1.3,1.92-.32,.74-.48,1.52-.48,2.35s.16,1.61,.48,2.35,.76,1.38,1.3,1.92c.55,.55,1.19,.98,1.92,1.3,.74,.32,1.52,.48,2.35,.48Z"/><path class="cls-1" d="M114.06,2.27c1.03,0,2,.2,2.91,.61,.91,.4,1.71,.95,2.41,1.65,.7,.7,1.25,1.5,1.65,2.41,.4,.91,.61,1.88,.61,2.91v7.57h-1.51v-7.57c0-.83-.16-1.61-.48-2.35-.32-.74-.76-1.38-1.3-1.92-.54-.55-1.19-.98-1.92-1.3-.74-.32-1.52-.48-2.35-.48s-1.61,.16-2.35,.48c-.74,.32-1.38,.76-1.92,1.3-.55,.54-.98,1.19-1.3,1.92-.32,.74-.48,1.52-.48,2.35v7.57h-1.51v-7.57c0-1.03,.2-2,.59-2.91,.39-.91,.93-1.71,1.6-2.41,.68-.7,1.47-1.25,2.39-1.65,.92-.4,1.91-.61,2.98-.61Z"/></g><path class="cls-1" d="M13.02,12.5c-.11,.23-.24,.45-.38,.66-.37,.56-.82,1.03-1.33,1.44-.52,.4-1.09,.72-1.71,.95-.63,.23-1.3,.35-2.03,.35-.83,0-1.61-.16-2.35-.48-.74-.32-1.38-.76-1.92-1.3-.55-.54-.98-1.19-1.3-1.92-.32-.74-.48-1.52-.48-2.35s.16-1.61,.48-2.35c.32-.74,.76-1.38,1.3-1.92,.54-.55,1.19-.98,1.92-1.3,.74-.32,1.52-.48,2.35-.48,.73,0,1.4,.12,2.03,.35,.63,.23,1.2,.55,1.71,.95,.51,.4,.96,.88,1.33,1.44,.18,.26,.33,.54,.47,.82h1.6c-.18-.5-.4-.98-.69-1.43-.46-.74-1.02-1.38-1.67-1.92s-1.38-.97-2.19-1.27c-.82-.3-1.68-.45-2.59-.45-1.07,0-2.06,.2-2.98,.59-.92,.39-1.72,.93-2.39,1.6-.68,.68-1.21,1.48-1.6,2.41-.39,.93-.59,1.92-.59,2.97s.2,2.06,.59,2.98c.39,.92,.93,1.72,1.6,2.39,.68,.68,1.47,1.21,2.39,1.6,.92,.39,1.91,.59,2.98,.59,.91,0,1.77-.15,2.59-.45,.82-.3,1.55-.73,2.19-1.27,.65-.54,1.2-1.19,1.67-1.92,.25-.4,.46-.82,.63-1.27h-1.62Z"/></g></g></svg>