<?xml version="1.0" encoding="UTF-8"?><svg id="_레이어_2" xmlns="http://www.w3.org/2000/svg" viewBox="0 0 145.26 67.29"><defs><style>.cls-1{stroke-width:1.37px;}.cls-1,.cls-2,.cls-3{fill:none;stroke:#fff;}.cls-1,.cls-3{stroke-miterlimit:10;}.cls-4{fill:#fff;}.cls-2{stroke-linecap:round;stroke-linejoin:round;}.cls-2,.cls-3{stroke-width:1.24px;}</style></defs><g id="_레이어_1-2"><g><path class="cls-4" d="M43.37,7.41c-.59-4.09-3.54-7.41-7.67-7.41-3.1,0-5.77,1.89-6.9,4.58,.7,.62,1.71,1.67,2.43,2.01,.56-1.62,1.8-2.8,3.62-2.8,2.29,0,4.15,1.86,4.15,4.15,0,0-.02,.94-.92,3.83-1.26,4.05-1.66,5-1.66,5-.1,.13,3.23-1.52,7.62-.07,0,0-.11-5.57-.66-9.29Z"/><path class="cls-4" d="M7.57,37.34c1.03,0,2,.2,2.91,.6,.91,.4,1.71,.95,2.41,1.65,.7,.7,1.25,1.5,1.65,2.41,.4,.91,.61,1.88,.61,2.91v7.57h-1.51v-7.57c0-.83-.16-1.61-.48-2.35-.32-.74-.76-1.38-1.3-1.92-.54-.54-1.19-.98-1.92-1.3-.74-.32-1.52-.48-2.35-.48s-1.61,.16-2.35,.48c-.74,.32-1.38,.76-1.92,1.3-.54,.54-.98,1.19-1.3,1.92-.32,.74-.48,1.52-.48,2.35v7.57H0v-20.34H1.51v8.23c.69-.91,1.54-1.64,2.57-2.19,1.03-.55,2.19-.83,3.48-.83Z"/><path class="cls-4" d="M37.38,52.47v-20.34h1.51v20.34h-1.51Z"/><path class="cls-4" d="M41.21,52.47v-20.34h1.51v20.34h-1.51Z"/><path class="cls-4" d="M73.24,52.47c-1.07,0-2.06-.2-2.98-.59-.92-.39-1.72-.93-2.39-1.6-.68-.68-1.21-1.47-1.6-2.39s-.59-1.91-.59-2.98v-7.56h1.51v7.56c0,.83,.16,1.61,.48,2.35,.32,.74,.76,1.38,1.3,1.92s1.18,.98,1.92,1.3c.74,.32,1.52,.48,2.35,.48s1.61-.16,2.35-.48c.74-.32,1.38-.76,1.92-1.3s.98-1.19,1.3-1.92c.32-.74,.48-1.52,.48-2.35v-7.56h1.51v7.56c0,.83,.16,1.61,.48,2.35,.32,.74,.76,1.38,1.3,1.92s1.18,.98,1.92,1.3c.74,.32,1.52,.48,2.35,.48s1.61-.16,2.35-.48c.74-.32,1.38-.76,1.92-1.3s.98-1.19,1.3-1.92c.32-.74,.48-1.52,.48-2.35v-7.56h1.51v7.56c0,1.07-.2,2.06-.61,2.98-.4,.92-.95,1.71-1.65,2.39s-1.5,1.21-2.41,1.6c-.91,.39-1.88,.59-2.91,.59-.77,0-1.49-.11-2.18-.32-.69-.21-1.32-.51-1.91-.89-.59-.38-1.11-.83-1.57-1.35-.46-.51-.85-1.07-1.15-1.68-.3,.6-.69,1.16-1.16,1.68-.47,.51-1.01,.96-1.6,1.35-.6,.38-1.24,.68-1.92,.89-.69,.21-1.39,.32-2.12,.32Z"/><path class="cls-4" d="M103.8,50.95c1.29,0,2.43-.34,3.42-1.03,.99-.69,1.71-1.6,2.18-2.75h1.66c-.26,.77-.63,1.47-1.1,2.12-.47,.65-1.03,1.2-1.66,1.66-.64,.46-1.34,.83-2.1,1.1-.77,.27-1.56,.41-2.39,.41-1.07,0-2.06-.2-2.98-.59-.92-.39-1.72-.93-2.39-1.6-.68-.68-1.21-1.47-1.6-2.39s-.59-1.91-.59-2.98,.2-2.04,.59-2.97,.93-1.73,1.6-2.41c.68-.68,1.47-1.21,2.39-1.6,.92-.39,1.91-.59,2.98-.59s2.04,.2,2.97,.59c.93,.39,1.73,.93,2.41,1.6,.68,.68,1.21,1.48,1.6,2.41s.59,1.92,.59,2.97v.76h-13.62c.12,.77,.36,1.47,.71,2.12,.35,.65,.8,1.2,1.35,1.66,.54,.46,1.15,.83,1.83,1.1,.68,.27,1.4,.41,2.16,.41Zm0-12.1c-.77,0-1.49,.14-2.16,.41-.68,.27-1.29,.64-1.83,1.1s-.99,1.02-1.35,1.68c-.35,.66-.59,1.36-.71,2.1h12.1c-.12-.75-.36-1.45-.71-2.1-.35-.66-.8-1.21-1.35-1.68s-1.16-.83-1.85-1.1c-.69-.27-1.4-.41-2.15-.41Z"/><path class="cls-4" d="M120.75,50.95c1.29,0,2.43-.34,3.42-1.03,.99-.69,1.71-1.6,2.18-2.75h1.66c-.26,.77-.63,1.47-1.1,2.12-.47,.65-1.03,1.2-1.66,1.66-.64,.46-1.34,.83-2.1,1.1-.77,.27-1.56,.41-2.39,.41-1.07,0-2.06-.2-2.98-.59-.92-.39-1.72-.93-2.39-1.6-.68-.68-1.21-1.47-1.6-2.39s-.59-1.91-.59-2.98,.2-2.04,.59-2.97,.93-1.73,1.6-2.41c.68-.68,1.47-1.21,2.39-1.6,.92-.39,1.91-.59,2.98-.59s2.04,.2,2.97,.59c.93,.39,1.73,.93,2.41,1.6,.68,.68,1.21,1.48,1.6,2.41s.59,1.92,.59,2.97v.76h-13.62c.12,.77,.36,1.47,.71,2.12,.35,.65,.8,1.2,1.35,1.66,.54,.46,1.15,.83,1.83,1.1,.68,.27,1.4,.41,2.16,.41Zm0-12.1c-.77,0-1.49,.14-2.16,.41-.68,.27-1.29,.64-1.83,1.1s-.99,1.02-1.35,1.68c-.35,.66-.59,1.36-.71,2.1h12.1c-.12-.75-.36-1.45-.71-2.1-.35-.66-.8-1.21-1.35-1.68s-1.16-.83-1.85-1.1c-.69-.27-1.4-.41-2.15-.41Z"/><path class="cls-4" d="M137.7,37.34c1.03,0,2,.2,2.91,.6,.91,.4,1.71,.95,2.41,1.65,.7,.7,1.25,1.5,1.65,2.41,.4,.91,.61,1.88,.61,2.91v7.57h-1.51v-7.57c0-.83-.16-1.61-.48-2.35-.32-.74-.76-1.38-1.3-1.92-.54-.54-1.19-.98-1.92-1.3-.74-.32-1.52-.48-2.35-.48s-1.61,.16-2.35,.48c-.74,.32-1.38,.76-1.92,1.3-.54,.54-.98,1.19-1.3,1.92-.32,.74-.48,1.52-.48,2.35v7.57h-1.51v-7.57c0-1.03,.2-2,.59-2.91s.93-1.71,1.6-2.41c.68-.7,1.47-1.25,2.39-1.65,.92-.4,1.91-.6,2.98-.6Z"/><path class="cls-1" d="M34.51,44.83c-1.74,5.02-6.82,7.82-11.34,6.25-4.52-1.57-6.77-6.91-5.02-11.93l16.36,5.68Z"/><path class="cls-1" d="M45.72,44.83c1.74,5.02,6.82,7.82,11.34,6.25,4.52-1.57,6.77-6.91,5.02-11.93l-16.36,5.68Z"/><g><path class="cls-2" d="M71.31,47.98c.29-1.59,.45-3.26,.45-4.98,0-11.05-6.39-20.01-14.26-20.01-.26,0-.52,.01-.77,.03-2.17-1.55-4.62-2.43-7.21-2.43-1.07,0-2.11,.15-3.13,.43-1.86-1.09-3.89-1.7-6.02-1.7s-4.15,.6-6.01,1.69c-1-.28-2.04-.42-3.1-.42-2.6,0-5.05,.87-7.21,2.43-.26-.02-.51-.03-.77-.03-5.98,0-11.09,5.16-13.21,12.48"/><path class="cls-3" d="M9.05,41.56c-.02,.47-.04,.95-.04,1.44,0,11.05,6.39,20.01,14.26,20.01,.26,0,.52-.01,.77-.03,2.17,1.55,4.62,2.43,7.21,2.43,1.06,0,2.1-.15,3.1-.42,1.86,1.09,3.88,1.69,6.01,1.69s4.16-.6,6.02-1.7c1.01,.28,2.06,.43,3.13,.43,2.6,0,5.05-.87,7.21-2.43,.26,.02,.51,.03,.77,.03,4.98,0,9.36-3.58,11.91-9.01"/></g></g></g></svg>